<svg xmlns="http://www.w3.org/2000/svg" width="4332" height="856" viewBox="0 0 4332 856">

<defs>
  <marker id="arrow" markerWidth="10" markerHeight="10" refX="8" refY="3" orient="auto" markerUnits="strokeWidth">
    <path d="M0,0 L0,6 L9,3 z" fill="#5b6b80" />
  </marker>
  <marker id="arrowRed" markerWidth="10" markerHeight="10" refX="8" refY="3" orient="auto" markerUnits="strokeWidth">
    <path d="M0,0 L0,6 L9,3 z" fill="#dc2626" />
  </marker>
  <pattern id="grid" width="24" height="24" patternUnits="userSpaceOnUse">
    <path d="M24 0 L0 0 0 24" fill="none" stroke="#f3f6f9" stroke-width="1"/>
  </pattern>
</defs>

<rect x="0" y="0" width="4332" height="856" fill="#fcfdff"/>
<rect x="0" y="0" width="4332" height="856" fill="url(#grid)"/>
<path d="M 216 98.0 L 276 98.0 L 276 98.0 L 300 98.0" fill="none" stroke="#dc2626" stroke-width="2.9" marker-end="url(#arrowRed)" stroke-linecap="round" stroke-linejoin="round" />
<path d="M 476 98.0 L 536 98.0 L 536 98.0 L 560 98.0" fill="none" stroke="#dc2626" stroke-width="2.9" marker-end="url(#arrowRed)" stroke-linecap="round" stroke-linejoin="round" />
<path d="M 736 98.0 L 796 98.0 L 796 98.0 L 820 98.0" fill="none" stroke="#dc2626" stroke-width="2.9" marker-end="url(#arrowRed)" stroke-linecap="round" stroke-linejoin="round" />
<path d="M 216 278.0 L 908.0 278.0 L 908.0 180 L 908.0 180 L 908.0 136" fill="none" stroke="#6b7c93" stroke-width="1.9" marker-end="url(#arrow)" stroke-linecap="round" stroke-linejoin="round" />
<path d="M 996 98.0 L 1056 98.0 L 1056 98.0 L 1080 98.0" fill="none" stroke="#dc2626" stroke-width="2.9" marker-end="url(#arrowRed)" stroke-linecap="round" stroke-linejoin="round" />
<path d="M 1256 98.0 L 1316 98.0 L 1316 97 L 1328 97" fill="none" stroke="#dc2626" stroke-width="2.9" marker-end="url(#arrowRed)" stroke-linecap="round" stroke-linejoin="round" />
<path d="M 1256 98.0 L 1288 98.0 L 1288 506 L 1428.0 506 L 1428.0 556" fill="none" stroke="#6b7c93" stroke-width="1.9" marker-end="url(#arrow)" stroke-linecap="round" stroke-linejoin="round" />
<path d="M 216 458.0 L 1168.0 458.0 L 1168.0 180 L 1168.0 180 L 1168.0 136" fill="none" stroke="#6b7c93" stroke-width="1.9" marker-end="url(#arrow)" stroke-linecap="round" stroke-linejoin="round" />
<path d="M 2776 97 L 2816 97 L 2816 78 L 3136 78 L 3136 98.0 L 3176 98.0" fill="none" stroke="#dc2626" stroke-width="2.9" marker-end="url(#arrowRed)" stroke-linecap="round" stroke-linejoin="round" />
<path d="M 1516 594.0 L 2856 594.0 L 2856 594.0 L 2916 594.0" fill="none" stroke="#6b7c93" stroke-width="1.9" marker-end="url(#arrow)" stroke-linecap="round" stroke-linejoin="round" />
<path d="M 3092 594.0 L 3264.0 594.0 L 3264.0 180 L 3264.0 180 L 3264.0 136" fill="none" stroke="#6b7c93" stroke-width="1.9" marker-end="url(#arrow)" stroke-linecap="round" stroke-linejoin="round" />
<path d="M 3352 98.0 L 3412 98.0 L 3412 98.0 L 3436 98.0" fill="none" stroke="#dc2626" stroke-width="2.9" marker-end="url(#arrowRed)" stroke-linecap="round" stroke-linejoin="round" />
<path d="M 3352 98.0 L 3524.0 98.0 L 3524.0 136 L 3524.0 136 L 3524.0 180" fill="none" stroke="#6b7c93" stroke-width="1.9" marker-end="url(#arrow)" stroke-linecap="round" stroke-linejoin="round" />
<path d="M 216 638.0 L 1168.0 638.0 L 1168.0 180 L 1168.0 180 L 1168.0 136" fill="none" stroke="#6b7c93" stroke-width="1.9" marker-end="url(#arrow)" stroke-linecap="round" stroke-linejoin="round" />
<path d="M 3612 98.0 L 3672 98.0 L 3672 98.0 L 3696 98.0" fill="none" stroke="#dc2626" stroke-width="2.9" marker-end="url(#arrowRed)" stroke-linecap="round" stroke-linejoin="round" />
<path d="M 3612 218.0 L 3672 218.0 L 3672 218.0 L 3696 218.0" fill="none" stroke="#6b7c93" stroke-width="1.9" marker-end="url(#arrow)" stroke-linecap="round" stroke-linejoin="round" />
<path d="M 3612 218.0 L 3784.0 218.0 L 3784.0 316 L 3784.0 316 L 3784.0 360" fill="none" stroke="#6b7c93" stroke-width="1.9" marker-end="url(#arrow)" stroke-linecap="round" stroke-linejoin="round" />
<path d="M 3872 218.0 L 3932 218.0 L 3932 218.0 L 3956 218.0" fill="none" stroke="#6b7c93" stroke-width="1.9" marker-end="url(#arrow)" stroke-linecap="round" stroke-linejoin="round" />
<path d="M 1520 203.0 L 1580 203.0 L 1580 203.0 L 1580 203.0" fill="none" stroke="#6b7c93" stroke-width="1.9" marker-end="url(#arrow)" stroke-linecap="round" stroke-linejoin="round" />
<path d="M 1520 313.0 L 2178 313.0 L 2178 304 L 2228 304" fill="none" stroke="#6b7c93" stroke-width="1.9" marker-end="url(#arrow)" stroke-linecap="round" stroke-linejoin="round" />
<path d="M 1740 203.0 L 2320.0 203.0 L 2320.0 234 L 2320.0 234 L 2320.0 268" fill="none" stroke="#6b7c93" stroke-width="1.9" marker-end="url(#arrow)" stroke-linecap="round" stroke-linejoin="round" />
<path d="M 1740 203.0 L 2500 203.0 L 2500 203.0 L 2560 203.0" fill="none" stroke="#6b7c93" stroke-width="1.9" marker-end="url(#arrow)" stroke-linecap="round" stroke-linejoin="round" />
<path d="M 2404 412.0 L 2464 412.0 L 2464 412.0 L 2440 412.0" fill="none" stroke="#6b7c93" stroke-width="1.9" marker-end="url(#arrow)" stroke-linecap="round" stroke-linejoin="round" />
<path d="M 2584 412.0 L 2644 412.0 L 2644 412.0 L 2620 412.0" fill="none" stroke="#6b7c93" stroke-width="1.9" marker-end="url(#arrow)" stroke-linecap="round" stroke-linejoin="round" />
<rect x="2228" y="268" width="548" height="188" rx="14" fill="rgba(148,163,184,0.10)" stroke="#b7c6d8" stroke-width="1.4" /><line x1="2228" y1="294" x2="2776" y2="294" stroke="#b7c6d8" stroke-width="1" /><text x="2240" y="286" font-size="13" fill="#111827">F07_04</text><text x="2240" y="301" font-size="10" fill="#64748b">Start 2957.0</text><text x="2502.0" y="301" text-anchor="middle" font-size="10" fill="#64748b">Dur 938.0</text><text x="2764" y="301" text-anchor="end" font-size="10" fill="#64748b">End 3895.0</text>
<rect x="1328" y="50" width="1448" height="406" rx="14" fill="rgba(148,163,184,0.05)" stroke="#dc2626" stroke-width="2.6" /><line x1="1328" y1="80" x2="2776" y2="80" stroke="#dc2626" stroke-width="1" /><text x="1340" y="68" font-size="13" fill="#111827">F07</text><text x="1340" y="83" font-size="10" fill="#64748b">Start 2551.0</text><text x="2052.0" y="83" text-anchor="middle" font-size="10" fill="#64748b">Dur 1344.0</text><text x="2764" y="83" text-anchor="end" font-size="10" fill="#64748b">End 3895.0</text>
<rect x="40" y="60" width="176" height="76" rx="8" fill="#ffffff" stroke="#dc2626" stroke-width="2.6" /><text x="128.0" y="84" text-anchor="middle" font-size="13" fill="#111827">F00</text><text x="50" y="111" font-size="10" fill="#64748b">Start 0.0</text><text x="128.0" y="111" text-anchor="middle" font-size="10" fill="#64748b">Dur 2010.0</text><text x="206" y="111" text-anchor="end" font-size="10" fill="#64748b">End 2010.0</text>
<rect x="300" y="60" width="176" height="76" rx="8" fill="#ffffff" stroke="#dc2626" stroke-width="2.6" /><text x="388.0" y="84" text-anchor="middle" font-size="13" fill="#111827">F01</text><text x="310" y="111" font-size="10" fill="#64748b">Start 2010.0</text><text x="388.0" y="111" text-anchor="middle" font-size="10" fill="#64748b">Dur 100.0</text><text x="466" y="111" text-anchor="end" font-size="10" fill="#64748b">End 2110.0</text>
<rect x="40" y="240" width="176" height="76" rx="8" fill="#ffffff" stroke="#334155" stroke-width="1.2" /><text x="128.0" y="264" text-anchor="middle" font-size="13" fill="#111827">F03</text><text x="50" y="291" font-size="10" fill="#64748b">Start 2096.0</text><text x="128.0" y="291" text-anchor="middle" font-size="10" fill="#64748b">Dur 113.0</text><text x="206" y="291" text-anchor="end" font-size="10" fill="#64748b">End 2209.0</text>
<rect x="560" y="60" width="176" height="76" rx="8" fill="#ffffff" stroke="#dc2626" stroke-width="2.6" /><text x="648.0" y="84" text-anchor="middle" font-size="13" fill="#111827">F02</text><text x="570" y="111" font-size="10" fill="#64748b">Start 2110.0</text><text x="648.0" y="111" text-anchor="middle" font-size="10" fill="#64748b">Dur 99.0</text><text x="726" y="111" text-anchor="end" font-size="10" fill="#64748b">End 2209.0</text>
<rect x="820" y="60" width="176" height="76" rx="8" fill="#ffffff" stroke="#dc2626" stroke-width="2.6" /><text x="908.0" y="84" text-anchor="middle" font-size="13" fill="#111827">F04</text><text x="830" y="111" font-size="10" fill="#64748b">Start 2209.0</text><text x="908.0" y="111" text-anchor="middle" font-size="10" fill="#64748b">Dur 192.0</text><text x="986" y="111" text-anchor="end" font-size="10" fill="#64748b">End 2401.0</text>
<rect x="40" y="420" width="176" height="76" rx="8" fill="#ffffff" stroke="#334155" stroke-width="1.2" /><text x="128.0" y="444" text-anchor="middle" font-size="13" fill="#111827">F06</text><text x="50" y="471" font-size="10" fill="#64748b">Start 2209.0</text><text x="128.0" y="471" text-anchor="middle" font-size="10" fill="#64748b">Dur 192.0</text><text x="206" y="471" text-anchor="end" font-size="10" fill="#64748b">End 2401.0</text>
<rect x="40" y="600" width="176" height="76" rx="8" fill="#ffffff" stroke="#334155" stroke-width="1.2" /><text x="128.0" y="624" text-anchor="middle" font-size="13" fill="#111827">F11</text><text x="50" y="651" font-size="10" fill="#64748b">Start 2285.0</text><text x="128.0" y="651" text-anchor="middle" font-size="10" fill="#64748b">Dur 116.0</text><text x="206" y="651" text-anchor="end" font-size="10" fill="#64748b">End 2401.0</text>
<rect x="1080" y="60" width="176" height="76" rx="8" fill="#ffffff" stroke="#dc2626" stroke-width="2.6" /><text x="1168.0" y="84" text-anchor="middle" font-size="13" fill="#111827">F05</text><text x="1090" y="111" font-size="10" fill="#64748b">Start 2401.0</text><text x="1168.0" y="111" text-anchor="middle" font-size="10" fill="#64748b">Dur 150.0</text><text x="1246" y="111" text-anchor="end" font-size="10" fill="#64748b">End 2551.0</text>
<rect x="1340" y="556" width="176" height="76" rx="8" fill="#ffffff" stroke="#334155" stroke-width="1.2" /><text x="1428.0" y="580" text-anchor="middle" font-size="13" fill="#111827">F08</text><text x="1350" y="607" font-size="10" fill="#64748b">Start 2551.0</text><text x="1428.0" y="607" text-anchor="middle" font-size="10" fill="#64748b">Dur 194.0</text><text x="1506" y="607" text-anchor="end" font-size="10" fill="#64748b">End 2745.0</text>
<rect x="2916" y="556" width="176" height="76" rx="8" fill="#ffffff" stroke="#334155" stroke-width="1.2" /><text x="3004.0" y="580" text-anchor="middle" font-size="13" fill="#111827">F09</text><text x="2926" y="607" font-size="10" fill="#64748b">Start 2745.0</text><text x="3004.0" y="607" text-anchor="middle" font-size="10" fill="#64748b">Dur 65.0</text><text x="3082" y="607" text-anchor="end" font-size="10" fill="#64748b">End 2810.0</text>
<rect x="3176" y="60" width="176" height="76" rx="8" fill="#ffffff" stroke="#dc2626" stroke-width="2.6" /><text x="3264.0" y="84" text-anchor="middle" font-size="13" fill="#111827">F10</text><text x="3186" y="111" font-size="10" fill="#64748b">Start 3895.0</text><text x="3264.0" y="111" text-anchor="middle" font-size="10" fill="#64748b">Dur 52.0</text><text x="3342" y="111" text-anchor="end" font-size="10" fill="#64748b">End 3947.0</text>
<rect x="3436" y="60" width="176" height="76" rx="8" fill="#ffffff" stroke="#dc2626" stroke-width="2.6" /><text x="3524.0" y="84" text-anchor="middle" font-size="13" fill="#111827">F12</text><text x="3446" y="111" font-size="10" fill="#64748b">Start 3947.0</text><text x="3524.0" y="111" text-anchor="middle" font-size="10" fill="#64748b">Dur 177.0</text><text x="3602" y="111" text-anchor="end" font-size="10" fill="#64748b">End 4124.0</text>
<rect x="3436" y="180" width="176" height="76" rx="8" fill="#ffffff" stroke="#334155" stroke-width="1.2" /><text x="3524.0" y="204" text-anchor="middle" font-size="13" fill="#111827">F13</text><text x="3446" y="231" font-size="10" fill="#64748b">Start 3947.0</text><text x="3524.0" y="231" text-anchor="middle" font-size="10" fill="#64748b">Dur 35.0</text><text x="3602" y="231" text-anchor="end" font-size="10" fill="#64748b">End 3982.0</text>
<rect x="3696" y="180" width="176" height="76" rx="8" fill="#ffffff" stroke="#334155" stroke-width="1.2" /><text x="3784.0" y="204" text-anchor="middle" font-size="13" fill="#111827">F15</text><text x="3706" y="231" font-size="10" fill="#64748b">Start 3982.0</text><text x="3784.0" y="231" text-anchor="middle" font-size="10" fill="#64748b">Dur 29.0</text><text x="3862" y="231" text-anchor="end" font-size="10" fill="#64748b">End 4011.0</text>
<rect x="3696" y="360" width="176" height="76" rx="8" fill="#ffffff" stroke="#334155" stroke-width="1.2" /><text x="3784.0" y="384" text-anchor="middle" font-size="13" fill="#111827">F17</text><text x="3706" y="411" font-size="10" fill="#64748b">Start 3982.0</text><text x="3784.0" y="411" text-anchor="middle" font-size="10" fill="#64748b">Dur 187.0</text><text x="3862" y="411" text-anchor="end" font-size="10" fill="#64748b">End 4169.0</text>
<rect x="3956" y="180" width="176" height="76" rx="8" fill="#ffffff" stroke="#334155" stroke-width="1.2" /><text x="4044.0" y="204" text-anchor="middle" font-size="13" fill="#111827">F16</text><text x="3966" y="231" font-size="10" fill="#64748b">Start 4011.0</text><text x="4044.0" y="231" text-anchor="middle" font-size="10" fill="#64748b">Dur 25.0</text><text x="4122" y="231" text-anchor="end" font-size="10" fill="#64748b">End 4036.0</text>
<rect x="3696" y="60" width="176" height="76" rx="8" fill="#ffffff" stroke="#dc2626" stroke-width="2.6" /><text x="3784.0" y="84" text-anchor="middle" font-size="13" fill="#111827">F14</text><text x="3706" y="111" font-size="10" fill="#64748b">Start 4124.0</text><text x="3784.0" y="111" text-anchor="middle" font-size="10" fill="#64748b">Dur 10010.0</text><text x="3862" y="111" text-anchor="end" font-size="10" fill="#64748b">End 14134.0</text>
<rect x="1360" y="168" width="160" height="70" rx="8" fill="#ffffff" stroke="#334155" stroke-width="1.2" /><text x="1440.0" y="192" text-anchor="middle" font-size="13" fill="#111827">F07_01</text><text x="1370" y="219" font-size="10" fill="#64748b">Start 2551.0</text><text x="1440.0" y="219" text-anchor="middle" font-size="10" fill="#64748b">Dur 73.0</text><text x="1510" y="219" text-anchor="end" font-size="10" fill="#64748b">End 2624.0</text>
<rect x="1580" y="168" width="160" height="70" rx="8" fill="#ffffff" stroke="#334155" stroke-width="1.2" /><text x="1660.0" y="192" text-anchor="middle" font-size="13" fill="#111827">F07_03</text><text x="1590" y="219" font-size="10" fill="#64748b">Start 2624.0</text><text x="1660.0" y="219" text-anchor="middle" font-size="10" fill="#64748b">Dur 333.0</text><text x="1730" y="219" text-anchor="end" font-size="10" fill="#64748b">End 2957.0</text>
<rect x="1360" y="278" width="160" height="70" rx="8" fill="#ffffff" stroke="#334155" stroke-width="1.2" /><text x="1440.0" y="302" text-anchor="middle" font-size="13" fill="#111827">F07_02</text><text x="1370" y="329" font-size="10" fill="#64748b">Start 2932.0</text><text x="1440.0" y="329" text-anchor="middle" font-size="10" fill="#64748b">Dur 25.0</text><text x="1510" y="329" text-anchor="end" font-size="10" fill="#64748b">End 2957.0</text>
<rect x="2560" y="168" width="160" height="70" rx="8" fill="#ffffff" stroke="#334155" stroke-width="1.2" /><text x="2640.0" y="192" text-anchor="middle" font-size="13" fill="#111827">F07_05</text><text x="2570" y="219" font-size="10" fill="#64748b">Start 2957.0</text><text x="2640.0" y="219" text-anchor="middle" font-size="10" fill="#64748b">Dur 20.0</text><text x="2710" y="219" text-anchor="end" font-size="10" fill="#64748b">End 2977.0</text>
<rect x="2260" y="380" width="144" height="64" rx="8" fill="#ffffff" stroke="#334155" stroke-width="1.2" /><text x="2332.0" y="404" text-anchor="middle" font-size="13" fill="#111827">F07_04_01</text><text x="2270" y="431" font-size="10" fill="#64748b">Start 2957.0</text><text x="2332.0" y="431" text-anchor="middle" font-size="10" fill="#64748b">Dur 473.0</text><text x="2394" y="431" text-anchor="end" font-size="10" fill="#64748b">End 3430.0</text>
<rect x="2440" y="380" width="144" height="64" rx="8" fill="#ffffff" stroke="#334155" stroke-width="1.2" /><text x="2512.0" y="404" text-anchor="middle" font-size="13" fill="#111827">F07_04_02</text><text x="2450" y="431" font-size="10" fill="#64748b">Start 3430.0</text><text x="2512.0" y="431" text-anchor="middle" font-size="10" fill="#64748b">Dur 21.0</text><text x="2574" y="431" text-anchor="end" font-size="10" fill="#64748b">End 3451.0</text>
<rect x="2620" y="380" width="144" height="64" rx="8" fill="#ffffff" stroke="#334155" stroke-width="1.2" /><text x="2692.0" y="404" text-anchor="middle" font-size="13" fill="#111827">F07_04_03</text><text x="2630" y="431" font-size="10" fill="#64748b">Start 3451.0</text><text x="2692.0" y="431" text-anchor="middle" font-size="10" fill="#64748b">Dur 444.0</text><text x="2754" y="431" text-anchor="end" font-size="10" fill="#64748b">End 3895.0</text>
<line x1="16" y1="840" x2="96" y2="840" stroke="#64748b" stroke-width="1.2" />
<line x1="16" y1="840" x2="16" y2="760" stroke="#64748b" stroke-width="1.2" />
<text x="100" y="844" font-size="12" fill="#334155">x</text>
<text x="10" y="756" font-size="12" fill="#334155">y</text>
</svg>