<svg xmlns="http://www.w3.org/2000/svg" width="4112" height="856" viewBox="0 0 4112 856">

<defs>
  <marker id="arrow" markerWidth="10" markerHeight="10" refX="8" refY="3" orient="auto" markerUnits="strokeWidth">
    <path d="M0,0 L0,6 L9,3 z" fill="#5b6b80" />
  </marker>
  <marker id="arrowRed" markerWidth="10" markerHeight="10" refX="8" refY="3" orient="auto" markerUnits="strokeWidth">
    <path d="M0,0 L0,6 L9,3 z" fill="#dc2626" />
  </marker>
  <pattern id="grid" width="24" height="24" patternUnits="userSpaceOnUse">
    <path d="M24 0 L0 0 0 24" fill="none" stroke="#f3f6f9" stroke-width="1"/>
  </pattern>
</defs>

<rect x="0" y="0" width="4112" height="856" fill="#fcfdff"/>
<rect x="0" y="0" width="4112" height="856" fill="url(#grid)"/>
<rect x="2008" y="268" width="548" height="188" rx="14" fill="rgba(148,163,184,0.10)" stroke="#b7c6d8" stroke-width="1.4" />
<line x1="2008" y1="294" x2="2556" y2="294" stroke="#b7c6d8" stroke-width="1" />
<rect x="1328" y="50" width="1228" height="406" rx="14" fill="rgba(148,163,184,0.05)" stroke="#cfd8e3" stroke-width="1.4" />
<line x1="1328" y1="80" x2="2556" y2="80" stroke="#cfd8e3" stroke-width="1" />
<path d="M 216 98.0 L 276 98.0 L 276 98.0 L 300 98.0" fill="none" stroke="#dc2626" stroke-width="2.9" marker-end="url(#arrowRed)" stroke-linecap="round" stroke-linejoin="round" />
<path d="M 476 98.0 L 536 98.0 L 536 98.0 L 560 98.0" fill="none" stroke="#dc2626" stroke-width="2.9" marker-end="url(#arrowRed)" stroke-linecap="round" stroke-linejoin="round" />
<path d="M 736 98.0 L 796 98.0 L 796 98.0 L 820 98.0" fill="none" stroke="#dc2626" stroke-width="2.9" marker-end="url(#arrowRed)" stroke-linecap="round" stroke-linejoin="round" />
<path d="M 216 278.0 L 908.0 278.0 L 908.0 180 L 908.0 180 L 908.0 136" fill="none" stroke="#6b7c93" stroke-width="1.9" marker-end="url(#arrow)" stroke-linecap="round" stroke-linejoin="round" />
<path d="M 996 98.0 L 1056 98.0 L 1056 98.0 L 1080 98.0" fill="none" stroke="#dc2626" stroke-width="2.9" marker-end="url(#arrowRed)" stroke-linecap="round" stroke-linejoin="round" />
<path d="M 1256 98.0 L 1316 98.0 L 1316 98.0 L 1340 98.0" fill="none" stroke="#dc2626" stroke-width="2.9" marker-end="url(#arrowRed)" stroke-linecap="round" stroke-linejoin="round" />
<path d="M 1256 98.0 L 1428.0 98.0 L 1428.0 512 L 1428.0 512 L 1428.0 556" fill="none" stroke="#6b7c93" stroke-width="1.9" marker-end="url(#arrow)" stroke-linecap="round" stroke-linejoin="round" />
<path d="M 216 458.0 L 1168.0 458.0 L 1168.0 180 L 1168.0 180 L 1168.0 136" fill="none" stroke="#6b7c93" stroke-width="1.9" marker-end="url(#arrow)" stroke-linecap="round" stroke-linejoin="round" />
<path d="M 1516 98.0 L 1556 98.0 L 1556 78 L 2916 78 L 2916 98.0 L 2956 98.0" fill="none" stroke="#dc2626" stroke-width="2.9" marker-end="url(#arrowRed)" stroke-linecap="round" stroke-linejoin="round" />
<path d="M 1516 594.0 L 2636 594.0 L 2636 594.0 L 2696 594.0" fill="none" stroke="#6b7c93" stroke-width="1.9" marker-end="url(#arrow)" stroke-linecap="round" stroke-linejoin="round" />
<path d="M 2872 594.0 L 3044.0 594.0 L 3044.0 180 L 3044.0 180 L 3044.0 136" fill="none" stroke="#6b7c93" stroke-width="1.9" marker-end="url(#arrow)" stroke-linecap="round" stroke-linejoin="round" />
<path d="M 3132 98.0 L 3192 98.0 L 3192 98.0 L 3216 98.0" fill="none" stroke="#dc2626" stroke-width="2.9" marker-end="url(#arrowRed)" stroke-linecap="round" stroke-linejoin="round" />
<path d="M 3132 98.0 L 3304.0 98.0 L 3304.0 136 L 3304.0 136 L 3304.0 180" fill="none" stroke="#6b7c93" stroke-width="1.9" marker-end="url(#arrow)" stroke-linecap="round" stroke-linejoin="round" />
<path d="M 216 638.0 L 1168.0 638.0 L 1168.0 180 L 1168.0 180 L 1168.0 136" fill="none" stroke="#6b7c93" stroke-width="1.9" marker-end="url(#arrow)" stroke-linecap="round" stroke-linejoin="round" />
<path d="M 3392 98.0 L 3452 98.0 L 3452 98.0 L 3476 98.0" fill="none" stroke="#dc2626" stroke-width="2.9" marker-end="url(#arrowRed)" stroke-linecap="round" stroke-linejoin="round" />
<path d="M 3392 218.0 L 3452 218.0 L 3452 218.0 L 3476 218.0" fill="none" stroke="#6b7c93" stroke-width="1.9" marker-end="url(#arrow)" stroke-linecap="round" stroke-linejoin="round" />
<path d="M 3392 218.0 L 3564.0 218.0 L 3564.0 316 L 3564.0 316 L 3564.0 360" fill="none" stroke="#6b7c93" stroke-width="1.9" marker-end="url(#arrow)" stroke-linecap="round" stroke-linejoin="round" />
<path d="M 3652 218.0 L 3712 218.0 L 3712 218.0 L 3736 218.0" fill="none" stroke="#6b7c93" stroke-width="1.9" marker-end="url(#arrow)" stroke-linecap="round" stroke-linejoin="round" />
<path d="M 1520 203.0 L 1580 203.0 L 1580 203.0 L 1580 203.0" fill="none" stroke="#6b7c93" stroke-width="1.9" marker-end="url(#arrow)" stroke-linecap="round" stroke-linejoin="round" />
<path d="M 1520 313.0 L 1960 313.0 L 1960 313.0 L 2020 313.0" fill="none" stroke="#6b7c93" stroke-width="1.9" marker-end="url(#arrow)" stroke-linecap="round" stroke-linejoin="round" />
<path d="M 1740 203.0 L 2100.0 203.0 L 2100.0 234 L 2100.0 234 L 2100.0 278" fill="none" stroke="#6b7c93" stroke-width="1.9" marker-end="url(#arrow)" stroke-linecap="round" stroke-linejoin="round" />
<path d="M 1740 203.0 L 1960 203.0 L 1960 203.0 L 2020 203.0" fill="none" stroke="#6b7c93" stroke-width="1.9" marker-end="url(#arrow)" stroke-linecap="round" stroke-linejoin="round" />
<path d="M 2184 412.0 L 2244 412.0 L 2244 412.0 L 2220 412.0" fill="none" stroke="#6b7c93" stroke-width="1.9" marker-end="url(#arrow)" stroke-linecap="round" stroke-linejoin="round" />
<path d="M 2364 412.0 L 2424 412.0 L 2424 412.0 L 2400 412.0" fill="none" stroke="#6b7c93" stroke-width="1.9" marker-end="url(#arrow)" stroke-linecap="round" stroke-linejoin="round" />
<rect x="40" y="60" width="176" height="76" rx="8" fill="#ffffff" stroke="#dc2626" stroke-width="2.6" /><text x="128.0" y="84" text-anchor="middle" font-size="13" fill="#111827">F00</text><text x="50" y="111" font-size="10" fill="#64748b">Start 0.0</text><text x="128.0" y="111" text-anchor="middle" font-size="10" fill="#64748b">Dur 2010.0</text><text x="206" y="111" text-anchor="end" font-size="10" fill="#64748b">End 2010.0</text>
<rect x="300" y="60" width="176" height="76" rx="8" fill="#ffffff" stroke="#dc2626" stroke-width="2.6" /><text x="388.0" y="84" text-anchor="middle" font-size="13" fill="#111827">F01</text><text x="310" y="111" font-size="10" fill="#64748b">Start 2010.0</text><text x="388.0" y="111" text-anchor="middle" font-size="10" fill="#64748b">Dur 100.0</text><text x="466" y="111" text-anchor="end" font-size="10" fill="#64748b">End 2110.0</text>
<rect x="40" y="240" width="176" height="76" rx="8" fill="#ffffff" stroke="#334155" stroke-width="1.2" /><text x="128.0" y="264" text-anchor="middle" font-size="13" fill="#111827">F03</text><text x="50" y="291" font-size="10" fill="#64748b">Start 2096.0</text><text x="128.0" y="291" text-anchor="middle" font-size="10" fill="#64748b">Dur 113.0</text><text x="206" y="291" text-anchor="end" font-size="10" fill="#64748b">End 2209.0</text>
<rect x="560" y="60" width="176" height="76" rx="8" fill="#ffffff" stroke="#dc2626" stroke-width="2.6" /><text x="648.0" y="84" text-anchor="middle" font-size="13" fill="#111827">F02</text><text x="570" y="111" font-size="10" fill="#64748b">Start 2110.0</text><text x="648.0" y="111" text-anchor="middle" font-size="10" fill="#64748b">Dur 99.0</text><text x="726" y="111" text-anchor="end" font-size="10" fill="#64748b">End 2209.0</text>
<rect x="820" y="60" width="176" height="76" rx="8" fill="#ffffff" stroke="#dc2626" stroke-width="2.6" /><text x="908.0" y="84" text-anchor="middle" font-size="13" fill="#111827">F04</text><text x="830" y="111" font-size="10" fill="#64748b">Start 2209.0</text><text x="908.0" y="111" text-anchor="middle" font-size="10" fill="#64748b">Dur 192.0</text><text x="986" y="111" text-anchor="end" font-size="10" fill="#64748b">End 2401.0</text>
<rect x="40" y="420" width="176" height="76" rx="8" fill="#ffffff" stroke="#334155" stroke-width="1.2" /><text x="128.0" y="444" text-anchor="middle" font-size="13" fill="#111827">F06</text><text x="50" y="471" font-size="10" fill="#64748b">Start 2209.0</text><text x="128.0" y="471" text-anchor="middle" font-size="10" fill="#64748b">Dur 192.0</text><text x="206" y="471" text-anchor="end" font-size="10" fill="#64748b">End 2401.0</text>
<rect x="40" y="600" width="176" height="76" rx="8" fill="#ffffff" stroke="#334155" stroke-width="1.2" /><text x="128.0" y="624" text-anchor="middle" font-size="13" fill="#111827">F11</text><text x="50" y="651" font-size="10" fill="#64748b">Start 2285.0</text><text x="128.0" y="651" text-anchor="middle" font-size="10" fill="#64748b">Dur 116.0</text><text x="206" y="651" text-anchor="end" font-size="10" fill="#64748b">End 2401.0</text>
<rect x="1080" y="60" width="176" height="76" rx="8" fill="#ffffff" stroke="#dc2626" stroke-width="2.6" /><text x="1168.0" y="84" text-anchor="middle" font-size="13" fill="#111827">F05</text><text x="1090" y="111" font-size="10" fill="#64748b">Start 2401.0</text><text x="1168.0" y="111" text-anchor="middle" font-size="10" fill="#64748b">Dur 150.0</text><text x="1246" y="111" text-anchor="end" font-size="10" fill="#64748b">End 2551.0</text>
<rect x="1340" y="60" width="176" height="76" rx="8" fill="#ffffff" stroke="#dc2626" stroke-width="2.6" /><text x="1428.0" y="84" text-anchor="middle" font-size="13" fill="#111827">F07</text><text x="1350" y="111" font-size="10" fill="#64748b">Start 2551.0</text><text x="1428.0" y="111" text-anchor="middle" font-size="10" fill="#64748b">Dur 1344.0</text><text x="1506" y="111" text-anchor="end" font-size="10" fill="#64748b">End 3895.0</text>
<rect x="1340" y="556" width="176" height="76" rx="8" fill="#ffffff" stroke="#334155" stroke-width="1.2" /><text x="1428.0" y="580" text-anchor="middle" font-size="13" fill="#111827">F08</text><text x="1350" y="607" font-size="10" fill="#64748b">Start 2551.0</text><text x="1428.0" y="607" text-anchor="middle" font-size="10" fill="#64748b">Dur 194.0</text><text x="1506" y="607" text-anchor="end" font-size="10" fill="#64748b">End 2745.0</text>
<rect x="2696" y="556" width="176" height="76" rx="8" fill="#ffffff" stroke="#334155" stroke-width="1.2" /><text x="2784.0" y="580" text-anchor="middle" font-size="13" fill="#111827">F09</text><text x="2706" y="607" font-size="10" fill="#64748b">Start 2745.0</text><text x="2784.0" y="607" text-anchor="middle" font-size="10" fill="#64748b">Dur 65.0</text><text x="2862" y="607" text-anchor="end" font-size="10" fill="#64748b">End 2810.0</text>
<rect x="2956" y="60" width="176" height="76" rx="8" fill="#ffffff" stroke="#dc2626" stroke-width="2.6" /><text x="3044.0" y="84" text-anchor="middle" font-size="13" fill="#111827">F10</text><text x="2966" y="111" font-size="10" fill="#64748b">Start 3895.0</text><text x="3044.0" y="111" text-anchor="middle" font-size="10" fill="#64748b">Dur 52.0</text><text x="3122" y="111" text-anchor="end" font-size="10" fill="#64748b">End 3947.0</text>
<rect x="3216" y="60" width="176" height="76" rx="8" fill="#ffffff" stroke="#dc2626" stroke-width="2.6" /><text x="3304.0" y="84" text-anchor="middle" font-size="13" fill="#111827">F12</text><text x="3226" y="111" font-size="10" fill="#64748b">Start 3947.0</text><text x="3304.0" y="111" text-anchor="middle" font-size="10" fill="#64748b">Dur 177.0</text><text x="3382" y="111" text-anchor="end" font-size="10" fill="#64748b">End 4124.0</text>
<rect x="3216" y="180" width="176" height="76" rx="8" fill="#ffffff" stroke="#334155" stroke-width="1.2" /><text x="3304.0" y="204" text-anchor="middle" font-size="13" fill="#111827">F13</text><text x="3226" y="231" font-size="10" fill="#64748b">Start 3947.0</text><text x="3304.0" y="231" text-anchor="middle" font-size="10" fill="#64748b">Dur 35.0</text><text x="3382" y="231" text-anchor="end" font-size="10" fill="#64748b">End 3982.0</text>
<rect x="3476" y="180" width="176" height="76" rx="8" fill="#ffffff" stroke="#334155" stroke-width="1.2" /><text x="3564.0" y="204" text-anchor="middle" font-size="13" fill="#111827">F15</text><text x="3486" y="231" font-size="10" fill="#64748b">Start 3982.0</text><text x="3564.0" y="231" text-anchor="middle" font-size="10" fill="#64748b">Dur 29.0</text><text x="3642" y="231" text-anchor="end" font-size="10" fill="#64748b">End 4011.0</text>
<rect x="3476" y="360" width="176" height="76" rx="8" fill="#ffffff" stroke="#334155" stroke-width="1.2" /><text x="3564.0" y="384" text-anchor="middle" font-size="13" fill="#111827">F17</text><text x="3486" y="411" font-size="10" fill="#64748b">Start 3982.0</text><text x="3564.0" y="411" text-anchor="middle" font-size="10" fill="#64748b">Dur 187.0</text><text x="3642" y="411" text-anchor="end" font-size="10" fill="#64748b">End 4169.0</text>
<rect x="3736" y="180" width="176" height="76" rx="8" fill="#ffffff" stroke="#334155" stroke-width="1.2" /><text x="3824.0" y="204" text-anchor="middle" font-size="13" fill="#111827">F16</text><text x="3746" y="231" font-size="10" fill="#64748b">Start 4011.0</text><text x="3824.0" y="231" text-anchor="middle" font-size="10" fill="#64748b">Dur 25.0</text><text x="3902" y="231" text-anchor="end" font-size="10" fill="#64748b">End 4036.0</text>
<rect x="3476" y="60" width="176" height="76" rx="8" fill="#ffffff" stroke="#dc2626" stroke-width="2.6" /><text x="3564.0" y="84" text-anchor="middle" font-size="13" fill="#111827">F14</text><text x="3486" y="111" font-size="10" fill="#64748b">Start 4124.0</text><text x="3564.0" y="111" text-anchor="middle" font-size="10" fill="#64748b">Dur 10010.0</text><text x="3642" y="111" text-anchor="end" font-size="10" fill="#64748b">End 14134.0</text>
<rect x="1360" y="168" width="160" height="70" rx="8" fill="#ffffff" stroke="#334155" stroke-width="1.2" /><text x="1440.0" y="192" text-anchor="middle" font-size="13" fill="#111827">F07_01</text><text x="1370" y="219" font-size="10" fill="#64748b">Start 2551.0</text><text x="1440.0" y="219" text-anchor="middle" font-size="10" fill="#64748b">Dur 73.0</text><text x="1510" y="219" text-anchor="end" font-size="10" fill="#64748b">End 2624.0</text>
<rect x="1580" y="168" width="160" height="70" rx="8" fill="#ffffff" stroke="#334155" stroke-width="1.2" /><text x="1660.0" y="192" text-anchor="middle" font-size="13" fill="#111827">F07_03</text><text x="1590" y="219" font-size="10" fill="#64748b">Start 2624.0</text><text x="1660.0" y="219" text-anchor="middle" font-size="10" fill="#64748b">Dur 333.0</text><text x="1730" y="219" text-anchor="end" font-size="10" fill="#64748b">End 2957.0</text>
<rect x="1360" y="278" width="160" height="70" rx="8" fill="#ffffff" stroke="#334155" stroke-width="1.2" /><text x="1440.0" y="302" text-anchor="middle" font-size="13" fill="#111827">F07_02</text><text x="1370" y="329" font-size="10" fill="#64748b">Start 2932.0</text><text x="1440.0" y="329" text-anchor="middle" font-size="10" fill="#64748b">Dur 25.0</text><text x="1510" y="329" text-anchor="end" font-size="10" fill="#64748b">End 2957.0</text>
<rect x="2020" y="278" width="160" height="70" rx="8" fill="#ffffff" stroke="#334155" stroke-width="1.2" /><text x="2100.0" y="302" text-anchor="middle" font-size="13" fill="#111827">F07_04</text><text x="2030" y="329" font-size="10" fill="#64748b">Start 2957.0</text><text x="2100.0" y="329" text-anchor="middle" font-size="10" fill="#64748b">Dur 938.0</text><text x="2170" y="329" text-anchor="end" font-size="10" fill="#64748b">End 3895.0</text>
<rect x="2020" y="168" width="160" height="70" rx="8" fill="#ffffff" stroke="#334155" stroke-width="1.2" /><text x="2100.0" y="192" text-anchor="middle" font-size="13" fill="#111827">F07_05</text><text x="2030" y="219" font-size="10" fill="#64748b">Start 2957.0</text><text x="2100.0" y="219" text-anchor="middle" font-size="10" fill="#64748b">Dur 20.0</text><text x="2170" y="219" text-anchor="end" font-size="10" fill="#64748b">End 2977.0</text>
<rect x="2040" y="380" width="144" height="64" rx="8" fill="#ffffff" stroke="#334155" stroke-width="1.2" /><text x="2112.0" y="404" text-anchor="middle" font-size="13" fill="#111827">F07_04_01</text><text x="2050" y="431" font-size="10" fill="#64748b">Start 2957.0</text><text x="2112.0" y="431" text-anchor="middle" font-size="10" fill="#64748b">Dur 473.0</text><text x="2174" y="431" text-anchor="end" font-size="10" fill="#64748b">End 3430.0</text>
<rect x="2220" y="380" width="144" height="64" rx="8" fill="#ffffff" stroke="#334155" stroke-width="1.2" /><text x="2292.0" y="404" text-anchor="middle" font-size="13" fill="#111827">F07_04_02</text><text x="2230" y="431" font-size="10" fill="#64748b">Start 3430.0</text><text x="2292.0" y="431" text-anchor="middle" font-size="10" fill="#64748b">Dur 21.0</text><text x="2354" y="431" text-anchor="end" font-size="10" fill="#64748b">End 3451.0</text>
<rect x="2400" y="380" width="144" height="64" rx="8" fill="#ffffff" stroke="#334155" stroke-width="1.2" /><text x="2472.0" y="404" text-anchor="middle" font-size="13" fill="#111827">F07_04_03</text><text x="2410" y="431" font-size="10" fill="#64748b">Start 3451.0</text><text x="2472.0" y="431" text-anchor="middle" font-size="10" fill="#64748b">Dur 444.0</text><text x="2534" y="431" text-anchor="end" font-size="10" fill="#64748b">End 3895.0</text>
<line x1="16" y1="840" x2="96" y2="840" stroke="#64748b" stroke-width="1.2" />
<line x1="16" y1="840" x2="16" y2="760" stroke="#64748b" stroke-width="1.2" />
<text x="100" y="844" font-size="12" fill="#334155">x</text>
<text x="10" y="756" font-size="12" fill="#334155">y</text>
</svg>